<svg width="125" height="46" viewBox="0 0 125 46" fill="none" xmlns="http://www.w3.org/2000/svg">
<path d="M39.5 19.5C29.9 19.1 20.1667 31.3333 16.5 37.5C13.8277 41.5 8.99998 42.5 3.49998 39.5C-0.900015 37.1 0.999985 30.1667 2.49998 27C3.83332 24.5 8.49998 17.7 16.5 10.5C24.5 3.29999 37.1667 1.5 42.5 1.5C47 1.16667 58.3 3.1 67.5 13.5C79 26.5 83.5 27 90 26.5C96.5 26 100.864 20.917 105.5 13.5C108 9.5 109 7 111.5 4.00001C113.892 1.12909 120.5 2 123.5 7.00001C125.441 10.2358 123.333 17 122 20C117.833 28 105.9 44.2 91.5 45C73.5 46 66.5 37.5 60 31.5C53.5 25.5 51.5 20 39.5 19.5Z" fill="#C4C4C4" stroke="#0E0E0D"/>
</svg>
